<svg id="Capa_1" enable-background="new 0 0 512 512" height="512" viewBox="0 0 512 512" width="512" xmlns="http://www.w3.org/2000/svg"><g><path d="m436 442h-15v-227c0-10.36-.97-20.73-2.88-30.82-.89-4.72-5.01-8.15-9.81-8.15-.62 0-1.25.06-1.87.18-2.62.5-4.9 1.98-6.4 4.19-1.51 2.21-2.06 4.87-1.57 7.49 1.065 5.628 1.794 11.353 2.187 17.11h-25.047c-2.287-30.583-14.645-66.307-33.405-95.667-1.48-2.314-3.001-4.568-4.542-6.776 1.726-1.217 3.424-2.475 5.093-3.773 6.17 4.631 12.026 9.782 17.504 15.446 1.91 1.97 4.46 3.05 7.19 3.05 2.61 0 5.08-.99 6.95-2.81 1.93-1.85 3.01-4.35 3.05-7.02.05-2.67-.95-5.2-2.8-7.12-7.5-7.75-15.78-14.8-24.64-20.95-8.93-6.2-18.51-11.53-28.46-15.84-10.14-4.4-20.76-7.77-31.58-10.04-1.27-.266-2.545-.512-3.824-.748 3.079-5.209 4.854-11.276 4.854-17.752 0-19.299-15.701-35-35-35s-35 15.701-35 35c0 6.475 1.774 12.54 4.852 17.748-11.666 2.152-23.059 5.558-34.082 10.222-9.77 4.13-19.2 9.25-28.02 15.21-8.74 5.9-16.96 12.68-24.42 20.15-7.47 7.46-14.25 15.68-20.15 24.42-5.96 8.82-11.08 18.25-15.21 28.02-8.61 20.35-12.97 41.95-12.97 64.23v227h-15c-5.523 0-10 4.477-10 10v50c0 5.523 4.477 10 10 10h360c5.523 0 10-4.477 10-10v-50c0-5.523-4.477-10-10-10zm-60 0v-107h25v107zm-45 0v-107h25v107zm-45 0v-53.5h25v53.5zm-40 0v-53.5h20v53.5zm-45 0v-33.5h15c3.506 0 6.87-.61 10-1.72v35.22zm-45 0v-107h25v107zm-45-217h25v90h-25zm45 0h25v90h-25zm45.748-107.495c-10.73 30.301-18.274 65.467-20.237 87.495h-25.059c2.584-29.75 16.103-65.344 35.084-92.123 3.334 1.68 6.743 3.218 10.212 4.628zm89.498 6.194c.415 1.166.832 2.355 1.256 3.587 9.639 28.08 16.044 58.659 17.922 77.713h-24.827c-.816-15.411-5.918-76.824-6.128-78.889 3.972-.643 7.902-1.445 11.777-2.411zm64.754 101.301v90h-25v-90zm45 90h-25v-90h25zm-175-90v56.281c-9.527 4.175-18.024 10.27-25 17.8v-74.081zm40 0v50.687c-3.274-.438-6.608-.687-10-.687s-6.726.248-10 .687v-50.687zm-40 125.22c-3.13-1.11-6.494-1.72-10-1.72h-14.962c.503-18.642 10.318-34.992 24.962-44.562zm-25 18.28h15c5.514 0 10 4.486 10 10s-4.486 10-10 10h-15zm45-72.572c3.245-.599 6.584-.928 10-.928s6.755.329 10 .928v72.572h-20zm40 8.01c15.036 9.827 25 26.798 25 46.062v18.5h-25zm25-4.857c-6.976-7.53-15.473-13.624-25-17.8v-56.281h25zm-51.448-171.127c.213 2.09 5.204 62.072 6.02 77.046h-19.145c.867-15.958 3.009-47.497 6.015-77.046 1.184.029 5.928.029 7.11 0zm-33.157 77.046h-24.816c2.023-20.419 9.245-53.345 19.192-81.296 3.868.964 7.791 1.764 11.756 2.407-3.032 29.861-5.266 62.379-6.132 78.889zm98.958-84.896c16.509 25.837 27.831 58.05 30.184 84.896h-25.045c-1.801-20.299-8.359-52.993-19.075-84.209-.386-1.125-.769-2.219-1.149-3.293 3.468-1.41 6.877-2.949 10.211-4.629 1.659 2.337 3.287 4.754 4.874 7.235zm-.7-32.854c-19.748 13.458-43.652 20.75-68.653 20.75s-48.905-7.292-68.653-20.75c.616-.332 1.235-.668 1.854-1.008 20.391-10.609 43.162-16.242 66.799-16.242 23.299 0 45.691 5.431 65.795 15.692.957.526 1.912 1.048 2.858 1.558zm-83.653-52.25c0-8.271 6.729-15 15-15s15 6.729 15 15-6.729 15-15 15-15-6.729-15-15zm-87.53 77.47c4.976-4.973 10.253-9.534 15.784-13.679 1.667 1.296 3.362 2.552 5.086 3.767-21.048 30.148-35.464 69.07-37.947 102.443h-25.045c2.373-34.957 17.113-67.504 42.122-92.531zm-42.47 222.53h25v107h-25zm315 157h-340v-30h340z"/><circle cx="393.642" cy="143.67" r="10"/></g></svg>