<svg id="Logo" xmlns="http://www.w3.org/2000/svg" viewBox="0 0 480.2 154.5">
    <title>White</title>
    <path d="M185.2,70.5h-7.8V92.1H165.8v7.8h11.6v34.5c0,10.71,7,18.5,16.76,18.5h2.64v-7.8h-2.64c-6.15,0-9-5.55-9-10.7V99.9h11.6V92.1H185.2Z"
          style="fill:#fff"/>
    <path d="M140,81.2V92.1H128.4v7.8H140v53h7.8v-53h11.6V92.1H147.8V81.2c0-5.16,2.8-10.7,9-10.7h2.64V62.7h-2.64C147.05,62.7,140,70.48,140,81.2Z"
          style="fill:#fff"/>
    <rect x="268.82" y="70.5" width="12.8" height="12.8" style="fill:#fff"/>
    <rect x="337.97" y="70.5" width="12.8" height="12.8" style="fill:#fff"/>
    <path d="M324.67,121.18a65.61,65.61,0,0,0-7.54-3.15q-4-1.41-7.51-2.35a15.91,15.91,0,0,1-5.79-2.75,5.48,5.48,0,0,1-2.3-4.5,5.6,5.6,0,0,1,2.39-4.47,10.25,10.25,0,0,1,6.51-1.9,14.38,14.38,0,0,1,6.08,1.4,17.06,17.06,0,0,1,4,2.32c.64.6,1.13,1.07,1.46,1.4l8.29-8.31-.81-.94a28.47,28.47,0,0,0-2.4-2,31,31,0,0,0-3.83-2.5,22.9,22.9,0,0,0-5.64-2.06,30.2,30.2,0,0,0-7.14-.84q-9.27,0-15.48,5.43t-6.2,12.5a16.07,16.07,0,0,0,2.31,8.78,14.25,14.25,0,0,0,5.82,5.38,69.34,69.34,0,0,0,7.54,3.12c2.68.94,5.19,1.74,7.51,2.38a16.49,16.49,0,0,1,5.79,2.75,5.44,5.44,0,0,1,2.31,4.47,6.84,6.84,0,0,1-2.56,5.59q-2.55,2.1-7.66,2.1a17.62,17.62,0,0,1-8.25-2.1,21.38,21.38,0,0,1-5.24-3.4,23.33,23.33,0,0,1-1.83-2.19l-8.29,8.31.93,1.19a19,19,0,0,0,2.84,2.72,38.71,38.71,0,0,0,4.58,3.15,26.78,26.78,0,0,0,6.7,2.69,32,32,0,0,0,8.56,1.13q10.21,0,16.6-5.63a17.45,17.45,0,0,0,6.39-13.56,16,16,0,0,0-2.3-8.75A14.56,14.56,0,0,0,324.67,121.18Z"
          style="fill:#fff"/>
    <rect x="337.6" y="92.1" width="12.8" height="60.8" style="fill:#fff"/>
    <path d="M473.29,97.81q-6.9-7.32-18-7.31a24.55,24.55,0,0,0-6.34.84,27.48,27.48,0,0,0-5.19,1.87,30.83,30.83,0,0,0-3.84,2.32,22.29,22.29,0,0,0-2.38,1.84l-.71.7V92.12H424V152.9h12.8V117.51c.38-4.48,1.79-8.07,4.24-10.73q4.35-4.73,11.66-4.72a14,14,0,0,1,10.47,4.37,15.25,15.25,0,0,1,4.23,11V152.9h12.8V117.43Q480.2,105.13,473.29,97.81Z"
          style="fill:#fff"/>
    <polygon points="232.7 136.23 215.03 92.1 201.6 92.1 226.34 152.9 239.06 152.9 263.8 92.1 250.37 92.1 232.7 136.23"
             style="fill:#fff"/>
    <path d="M387.2,90.5a32.61,32.61,0,0,0-32,32,32,32,0,1,0,54.47-22.47A30.67,30.67,0,0,0,387.2,90.5Zm0,51.2a19.2,19.2,0,1,1,19.2-19.2A19.2,19.2,0,0,1,387.2,141.7Z"
          style="fill:#fff"/>
    <rect x="268.6" y="92.1" width="12.8" height="60.8" style="fill:#fff"/>
    <path d="M96.4,90.5a30.67,30.67,0,0,0-22.47,9.56,31.21,31.21,0,0,0,0,44.9,31.23,31.23,0,0,0,44.94,0,31.21,31.21,0,0,0,0-44.9A30.68,30.68,0,0,0,96.4,90.5Zm0,56.2a24.2,24.2,0,1,1,24.2-24.2A24.2,24.2,0,0,1,96.4,146.7Z"
          style="fill:#fff"/>
    <path d="M41.87,107.22c-4.75-1.62-9.56-3.18-14.32-4.63a35,35,0,0,1-11.77-6A11,11,0,0,1,11.2,87.3a14.84,14.84,0,0,1,5.24-11.73c3.52-3,8.53-4.71,14.89-4.71a27.47,27.47,0,0,1,7.12.91,25.13,25.13,0,0,1,5.52,2,28.71,28.71,0,0,1,4,2.59c1.24,1,3.62,3.21,4,3.56l5.67-5.76a39.65,39.65,0,0,0-5-4.54,46.39,46.39,0,0,0-5.08-3.11,34.94,34.94,0,0,0-7.21-2.7,35.16,35.16,0,0,0-9-1.15c-8.33,0-15.2,2.54-20.41,7.16A22.83,22.83,0,0,0,3,87.3,18.84,18.84,0,0,0,8.25,101,30.59,30.59,0,0,0,20.74,109c4.73,1.62,9.54,3.17,14.31,4.64a35,35,0,0,1,11.81,6,11.67,11.67,0,0,1,4.6,9.66c0,5.22-1.78,9.27-5.44,12.39s-9,4.7-16,4.7a32.16,32.16,0,0,1-8.68-1.15,30.33,30.33,0,0,1-6.61-2.59,28.63,28.63,0,0,1-4.63-3.29c-1.75-1.53-4.22-4.05-4.48-4.37L0,140.55a46.11,46.11,0,0,0,5.43,5.34,48.31,48.31,0,0,0,5.7,3.88,35.09,35.09,0,0,0,8.36,3.32,39.93,39.93,0,0,0,10.57,1.41c9,0,16.21-2.39,21.51-7.09a23.32,23.32,0,0,0,8-18.16c0-5.71-1.76-10.46-5.24-14.11A30.72,30.72,0,0,0,41.87,107.22Z"
          style="fill:#fff"/>
    <polygon
            points="192.42 38.76 176.06 38.76 192.42 22.4 192.42 15.04 164.4 15.04 164.4 22.4 180.76 22.4 164.4 38.76 164.4 46.13 192.42 46.13 192.42 38.76"
            style="fill:#fff"/>
    <path d="M238.85,28.94c0-5.31,2.66-7.56,5.94-7.56,3.88,0,5.72,2.45,5.72,6.75v18h8.8v-19c0-8-4.5-12.88-12.07-12.88a11,11,0,0,0-8.59,4.29V15h-8.59v31.1h8.79Z"
          style="fill:#fff"/>
    <path d="M128.8,28.94c0-5.31,2.66-7.56,5.94-7.56,3.88,0,5.72,2.45,5.72,6.75v18h8.8v-19c0-8-4.5-12.88-12.07-12.88a11,11,0,0,0-8.59,4.29V15H120v31.1h8.79Z"
          style="fill:#fff"/>
    <path d="M218.19,42.7v3.43h8.6V15h-8.6v2.82a13.08,13.08,0,0,0-9.29-3.63c-7.07,0-15.25,5-15.25,16.16s8.38,16.36,15,16.56A12.05,12.05,0,0,0,218.19,42.7ZM202.44,30.59a7.89,7.89,0,0,1,8-8,8,8,0,0,1,8,8,8.14,8.14,0,0,1-8,8A8,8,0,0,1,202.44,30.59Z"
          style="fill:#fff"/>
    <path d="M64.78,46.94A16.36,16.36,0,1,0,48.42,30.58,16.35,16.35,0,0,0,64.78,46.94Zm0-24.34a8,8,0,1,1-8,8A8,8,0,0,1,64.78,22.6Z"
          style="fill:#fff"/>
    <rect x="152.53" y="15.03" width="8.59" height="31.09" style="fill:#fff"/>
    <rect x="152.53" y="3.99" width="8.59" height="8.59" style="fill:#fff"/>
    <path d="M280,46.13h1.43v-8.6H280c-3.32,0-4.5-.89-4.5-5.93V22.4h5.93V15h-5.93V4h-8.59V15H261V22.4h5.93v9.2C266.88,43.61,274,46.13,280,46.13Z"
          style="fill:#fff"/>
    <path d="M98.65,46.94a12.05,12.05,0,0,0,9.49-4.24v3.43a8,8,0,0,1-8,8A10.44,10.44,0,0,1,91,48.73L83.6,53a19,19,0,0,0,16.57,9.68,16.57,16.57,0,0,0,16.57-16.57V15h-8.6v2.82a13.08,13.08,0,0,0-9.29-3.63c-7.07,0-15.25,5-15.25,16.16S92,46.74,98.65,46.94Zm1.71-24.34a8,8,0,0,1,8,8,8.14,8.14,0,0,1-8,8,8,8,0,0,1-8-8A7.89,7.89,0,0,1,100.36,22.6Z"
          style="fill:#fff"/>
    <path d="M26.46,46.94A23.43,23.43,0,0,0,46.77,35.21L39.52,31a15.09,15.09,0,1,1,0-15.09l7.26-4.2A23.46,23.46,0,1,0,26.46,46.94Z"
          style="fill:#fff"/>
</svg>